<svg xmlns="http://www.w3.org/2000/svg" viewBox="0 0 138.27 49.67"><defs><style>.cls-1{fill:#ff6700;}.cls-2{fill:#fff;}</style></defs><title>Asset 2</title><g id="Layer_2" data-name="Layer 2"><g id="Layer_1-2" data-name="Layer 1"><g id="Group_1" data-name="Group 1"><g id="_Group_" data-name="&lt;Group&gt;"><path id="_Compound_Path_" data-name="&lt;Compound Path&gt;" class="cls-1" d="M22.51,14.92a12.74,12.74,0,0,0-9.4-3.63A13.7,13.7,0,0,0,4.83,13.9V0H0V24.56a13.66,13.66,0,0,0,3.47,9.71,11.9,11.9,0,0,0,9.08,3.63,14.27,14.27,0,0,0,9.79-3.47c2.61-2.37,3.87-5.61,3.87-9.87A13.09,13.09,0,0,0,22.51,14.92ZM19.2,31.19A8.41,8.41,0,0,1,13,33.48,7.79,7.79,0,0,1,7,31.19a9.35,9.35,0,0,1-2.13-6.55V19.19c1.66-1.26,3.47-3.4,7.74-3.4a8.9,8.9,0,0,1,6.4,2.37,8.45,8.45,0,0,1,2.45,6.48C21.41,27.48,20.7,29.69,19.2,31.19Z"/><path id="_Compound_Path_2" data-name="&lt;Compound Path&gt;" class="cls-1" d="M34.36,37.43H29.62V11.76h4.74Zm-4.9-31a3.1,3.1,0,0,1,0-3.95,3.05,3.05,0,0,1,4.26,0,3,3,0,0,1,.71,2,3.19,3.19,0,0,1-.71,2,2.67,2.67,0,0,1-2.13.87,2.28,2.28,0,0,1-2.13-.87Z"/><path id="_Path_" data-name="&lt;Path&gt;" class="cls-2" d="M72.26,11.77v4.5H62.78a5.84,5.84,0,0,0-2.68.55A1.87,1.87,0,0,0,59,18.48a3.17,3.17,0,0,0,.24,1.19,3.51,3.51,0,0,0,.63.87,2.4,2.4,0,0,0,1.1.63,9,9,0,0,0,1.1.47c.24.08,1.42.47,3.4,1.11s3.47,1.18,4.42,1.58a5,5,0,0,1,2.21,1.74,5.3,5.3,0,0,1,1,2.13,9.65,9.65,0,0,1,.24,2.05c0,4.74-3.32,7.19-9.87,7.19H54.26v-4.5h9.24c3.32,0,5.05-.87,5.05-2.69A2.39,2.39,0,0,0,67,28.11a18.51,18.51,0,0,0-3.55-1.42c-1.42-.4-2.84-.87-4.18-1.34a8.18,8.18,0,0,1-3.55-2.53,6.67,6.67,0,0,1-1.5-4.26,5.61,5.61,0,0,1,2.53-5,10.22,10.22,0,0,1,6.08-1.74l9.4-.08Z"/><path id="_Path_2" data-name="&lt;Path&gt;" class="cls-2" d="M76.29,11.77H81V25.19c0,2.92.47,4.9,1.34,6.08S84.89,33,87.26,33h5.61V11.77h4.74v24.4c0,4.42-1.18,7.82-3.47,10.11s-6,3.4-11,3.4H79.29V45.16h3.4c6.55,0,9.95-2.53,10.26-7.66h-4.5c-4.66,0-7.82-.79-9.55-2.45s-2.53-5-2.53-10V11.77Z"/><path id="_Compound_Path_3" data-name="&lt;Compound Path&gt;" class="cls-2" d="M129.27,33.48A7.92,7.92,0,0,1,123.19,31a8.67,8.67,0,0,1-1.9-3.32h5.29c7.82,0,11.69-3,11.69-8.92,0-4.74-3-7.26-9.08-7.5-4.11-.16-7.42,1.1-9.79,3.71a14.56,14.56,0,0,0-3.55,10.18,12.25,12.25,0,0,0,3.63,9.24,14.58,14.58,0,0,0,18.4.55l-3.24-3.16A8.23,8.23,0,0,1,129.27,33.48Zm-.32-18a5.52,5.52,0,0,1,3.16.79,3,3,0,0,1,1.26,2.53A4.22,4.22,0,0,1,132,22.43c-.95.71-2.61,1.1-5,1.1H120.9A9.74,9.74,0,0,1,123,18.16a7.56,7.56,0,0,1,6-2.69Z"/><path id="_Path_3" data-name="&lt;Path&gt;" class="cls-2" d="M101.16,7.42h4.66v4.9h7v4.34h-7V27.32a6.75,6.75,0,0,0,.63,3A3.24,3.24,0,0,0,108.19,32a9,9,0,0,0,2.13.63,21.52,21.52,0,0,0,2.53.16v4.34c-3.95,0-6.95-.79-8.84-2.29s-2.84-4-2.84-7.58V7.42Z"/><path id="_Path_4" data-name="&lt;Path&gt;" class="cls-1" d="M38.86,7.42h4.66v4.9h7v4.34h-7V27.32a6.75,6.75,0,0,0,.63,3A3.24,3.24,0,0,0,45.89,32a9,9,0,0,0,2.13.63,21.52,21.52,0,0,0,2.53.16v4.34c-3.95,0-6.95-.79-8.84-2.29s-2.84-4-2.84-7.58V7.42Z"/></g></g></g></g></svg>