<svg xmlns="http://www.w3.org/2000/svg" viewBox="0 0 54.32 54.32"><defs><style>.cls-1{fill:#ff6700;}</style></defs><title>Asset 1</title><g id="Layer_2" data-name="Layer 2"><g id="Layer_1-2" data-name="Layer 1"><g id="Group_2" data-name="Group 2"><path id="_Compound_Path_" data-name="&lt;Compound Path&gt;" class="cls-1" d="M27.16,0A27.16,27.16,0,1,0,54.32,27.16,27.16,27.16,0,0,0,27.16,0ZM17.05,20.45c2-1.58,4.26-4.11,9.55-4.18a10.85,10.85,0,0,1,7.9,2.92,10.72,10.72,0,0,1,3,8c0,3.55-.95,6.24-2.76,8.13s-4.42,2.76-7.66,2.76a9.69,9.69,0,0,1-7.34-2.84c-1.82-1.9-2.68-4.58-2.68-8.05ZM27.16,48.64A21.5,21.5,0,0,1,5.68,27.16a21.22,21.22,0,0,1,5.45-14.21V27.08c0,5,1.42,9,4.26,12a14.69,14.69,0,0,0,11.21,4.5,17,17,0,0,0,12-4.34c3.16-2.84,4.74-6.95,4.74-12.16,0-5-1.5-8.92-4.58-11.92a15.78,15.78,0,0,0-11.53-4.5A17,17,0,0,0,17.05,13.9V8.21A20.86,20.86,0,0,1,27.16,5.69a21.48,21.48,0,0,1,0,43Z"/></g></g></g></svg>