<svg xmlns="http://www.w3.org/2000/svg" viewBox="0 0 138.27 118.57"><defs><style>.cls-1{fill:#ff6700;}.cls-2{fill:#fff;}</style></defs><title>Asset 3</title><g id="Layer_2" data-name="Layer 2"><g id="Layer_1-2" data-name="Layer 1"><g id="Group_1" data-name="Group 1"><g id="_Group_" data-name="&lt;Group&gt;"><path id="_Compound_Path_" data-name="&lt;Compound Path&gt;" class="cls-1" d="M22.51,83.82a12.74,12.74,0,0,0-9.4-3.63,13.7,13.7,0,0,0-8.28,2.61V68.89H0V93.45a13.66,13.66,0,0,0,3.47,9.71,11.9,11.9,0,0,0,9.08,3.63,14.27,14.27,0,0,0,9.79-3.47c2.61-2.37,3.87-5.61,3.87-9.87A13.09,13.09,0,0,0,22.51,83.82ZM19.2,100.08A8.41,8.41,0,0,1,13,102.37,7.79,7.79,0,0,1,7,100.08a9.35,9.35,0,0,1-2.13-6.55V88.08c1.66-1.26,3.47-3.4,7.74-3.4a8.9,8.9,0,0,1,6.4,2.37,8.45,8.45,0,0,1,2.45,6.48C21.41,96.37,20.7,98.58,19.2,100.08Z"/><path id="_Compound_Path_2" data-name="&lt;Compound Path&gt;" class="cls-1" d="M34.36,106.32H29.62V80.66h4.74Zm-4.9-31a3.1,3.1,0,0,1,0-3.95,2.84,2.84,0,0,1,5,2,3.19,3.19,0,0,1-.71,2,2.67,2.67,0,0,1-2.13.87,2.28,2.28,0,0,1-2.13-.87Z"/><path id="_Path_" data-name="&lt;Path&gt;" class="cls-2" d="M72.26,80.66v4.5H62.78a5.84,5.84,0,0,0-2.68.55A1.87,1.87,0,0,0,59,87.37a3.17,3.17,0,0,0,.24,1.19,3.51,3.51,0,0,0,.63.87,2.4,2.4,0,0,0,1.1.63,9,9,0,0,0,1.1.47c.24.08,1.42.47,3.4,1.11s3.47,1.18,4.42,1.58A5,5,0,0,1,72.11,95a5.3,5.3,0,0,1,1,2.13,9.65,9.65,0,0,1,.24,2.05c0,4.74-3.32,7.19-9.87,7.19H54.26v-4.5h9.24c3.32,0,5.05-.87,5.05-2.69A2.39,2.39,0,0,0,67,97a18.51,18.51,0,0,0-3.55-1.42c-1.42-.4-2.84-.87-4.18-1.34a8.18,8.18,0,0,1-3.55-2.53,6.67,6.67,0,0,1-1.5-4.26,5.61,5.61,0,0,1,2.53-5,10.22,10.22,0,0,1,6.08-1.74l9.4-.08Z"/><path id="_Path_2" data-name="&lt;Path&gt;" class="cls-2" d="M76.29,80.66H81V94.08c0,2.92.47,4.9,1.34,6.08s2.53,1.74,4.9,1.74h5.61V80.66h4.74v24.4c0,4.42-1.18,7.82-3.47,10.11s-6,3.4-11,3.4H79.29v-4.51h3.4c6.55,0,9.95-2.53,10.26-7.66h-4.5c-4.66,0-7.82-.79-9.55-2.45s-2.53-5-2.53-10V80.66Z"/><path id="_Compound_Path_3" data-name="&lt;Compound Path&gt;" class="cls-2" d="M129.27,102.37a7.92,7.92,0,0,1-6.08-2.45,8.67,8.67,0,0,1-1.9-3.32h5.29c7.82,0,11.69-3,11.69-8.92,0-4.74-3-7.26-9.08-7.5-4.11-.16-7.42,1.1-9.79,3.71a14.56,14.56,0,0,0-3.55,10.18,12.25,12.25,0,0,0,3.63,9.24,14.58,14.58,0,0,0,18.4.55l-3.24-3.16A8.23,8.23,0,0,1,129.27,102.37Zm-.32-18a5.52,5.52,0,0,1,3.16.79,3,3,0,0,1,1.26,2.53A4.22,4.22,0,0,1,132,91.32c-.95.71-2.61,1.1-5,1.1H120.9A9.74,9.74,0,0,1,123,87.06a7.56,7.56,0,0,1,6-2.69Z"/><path id="_Path_3" data-name="&lt;Path&gt;" class="cls-2" d="M101.16,76.32h4.66v4.9h7v4.34h-7V96.22a6.75,6.75,0,0,0,.63,3,3.24,3.24,0,0,0,1.74,1.66,9,9,0,0,0,2.13.63,21.52,21.52,0,0,0,2.53.16V106c-3.95,0-6.95-.79-8.84-2.29s-2.84-4-2.84-7.58V76.32Z"/><path id="_Path_4" data-name="&lt;Path&gt;" class="cls-1" d="M38.86,76.32h4.66v4.9h7v4.34h-7V96.22a6.75,6.75,0,0,0,.63,3,3.24,3.24,0,0,0,1.74,1.66,9,9,0,0,0,2.13.63,21.52,21.52,0,0,0,2.53.16V106c-3.95,0-6.95-.79-8.84-2.29s-2.84-4-2.84-7.58V76.32Z"/></g></g><g id="Group_2" data-name="Group 2"><path id="_Compound_Path_4" data-name="&lt;Compound Path&gt;" class="cls-1" d="M69.43,0A27.16,27.16,0,1,0,96.59,27.16,27.16,27.16,0,0,0,69.43,0ZM59.32,20.45c2-1.58,4.26-4.11,9.55-4.18a10.85,10.85,0,0,1,7.9,2.92,10.72,10.72,0,0,1,3,8c0,3.55-.95,6.24-2.76,8.13s-4.42,2.76-7.66,2.76A9.69,9.69,0,0,1,62,35.22c-1.82-1.9-2.68-4.58-2.68-8.05ZM69.43,48.64A21.5,21.5,0,0,1,48,27.16,21.22,21.22,0,0,1,53.4,12.95V27.08c0,5,1.42,9,4.26,12a14.69,14.69,0,0,0,11.21,4.5,17,17,0,0,0,12-4.34c3.16-2.84,4.74-6.95,4.74-12.16,0-5-1.5-8.92-4.58-11.92a15.78,15.78,0,0,0-11.53-4.5A17,17,0,0,0,59.32,13.9V8.21A20.86,20.86,0,0,1,69.43,5.69a21.48,21.48,0,0,1,0,43Z"/></g></g></g></svg>